<svg xmlns="http://www.w3.org/2000/svg" viewBox="0 0 315.57 346.21"><defs><style>.a,.b,.c{fill:#1d1d1b;}.b{font-size:19px;letter-spacing:0.05em;}.b,.c{font-family:FreestyleScript-Regular, Freestyle Script;}.c{font-size:31.56px;}.c,.d{stroke:#1d1d1b;stroke-miterlimit:10;}.d{fill:none;stroke-width:2.5px;}</style></defs><title>Plan de travail 1</title><path class="a" d="M66.23,315.46a2,2,0,0,1-2.72-.84c-12.68-24.61-34.87-88-34.87-139.47,0-40.91,13.69-78.47,38.54-105.77,23.56-25.89,56-40.74,88.88-40.74,35.47,0,66.08,12.1,88.54,35,26.06,26.58,39.27,65.47,39.27,115.59,0,65.07-22.69,111.87-34.46,135.35a2,2,0,0,1-2.69.89h0a2,2,0,0,1-.89-2.68c11.64-23.2,34-69.44,34-133.56,0-108.08-64-146.59-123.81-146.59-60.67,0-123.42,53.3-123.42,142.51,0,50.85,21.91,113.38,34.42,137.64a2,2,0,0,1-.83,2.67Z"/><text class="b" transform="translate(129.4 312.32) scale(1.2 1)">DRÔME</text><text class="c" transform="translate(71.53 247.17) rotate(-109.52) scale(1.12 1)">L</text><text class="c" transform="translate(68.31 233.97) rotate(-107.09) scale(1.12 1)">E</text><text class="c" transform="translate(64.79 217.83) rotate(-104.51) scale(1.12 1)"> </text><text class="c" transform="matrix(-0.23, -1.1, 0.98, -0.21, 62.99, 206.46)"> </text><text class="c" transform="translate(61.95 195.53) rotate(-98.27) scale(1.12 1)">R</text><text class="c" transform="translate(61.1 178.62) rotate(-92.74) scale(1.12 1)">E</text><text class="c" transform="matrix(0.05, -1.12, 1, 0.05, 61.81, 163.23)">L</text><text class="c" transform="matrix(0.17, -1.11, 0.99, 0.15, 63.67, 151.24)">A</text><text class="c" transform="matrix(0.28, -1.09, 0.97, 0.25, 67.69, 134.69)">I</text><text class="c" transform="translate(71.05 125.98) rotate(-69.97) scale(1.12 1)">S</text><text class="c" transform="matrix(0.49, -1.01, 0.9, 0.44, 77.5, 112.38)"> </text><text class="c" transform="translate(83.01 103.61) rotate(-58.51) scale(1.12 1)"> </text><text class="c" transform="translate(88.91 96.09) rotate(-51.3) scale(1.12 1)">D</text><text class="c" transform="translate(99.98 84.71) rotate(-41.41) scale(1.12 1)">U</text><text class="c" transform="matrix(0.94, -0.61, 0.54, 0.84, 114.93, 73.83)"> </text><text class="c" transform="translate(123.74 69.4) rotate(-26.21) scale(1.12 1)"> </text><text class="c" transform="translate(132.16 66.36) rotate(-17.51) scale(1.12 1)">T</text><text class="c" transform="translate(147.19 63.18) rotate(-7.13) scale(1.12 1)">E</text><text class="c" transform="translate(160.82 62.9) rotate(2.45) scale(1.12 1)">M</text><text class="c" transform="translate(180.1 65.55) rotate(12.86) scale(1.12 1)">P</text><text class="c" transform="matrix(1.04, 0.41, -0.37, 0.93, 194.87, 70.46)">L</text><text class="c" transform="matrix(0.97, 0.57, -0.51, 0.86, 204.64, 75.59)">E</text><text class="c" transform="translate(216.13 83.96) rotate(38.71) scale(1.12 1)"> </text><text class="c" transform="matrix(0.79, 0.8, -0.71, 0.7, 223.09, 90.88)"> </text><text class="c" transform="matrix(0.7, 0.88, -0.78, 0.62, 229.29, 98.66)">-</text><text class="c" transform="translate(234.56 107.02) rotate(57.47) scale(1.12 1)"> </text><text class="c" transform="translate(239.16 116.25) rotate(62.85) scale(1.12 1)"> </text><text class="c" transform="translate(242.48 125.37) rotate(69.73) scale(1.12 1)">M</text><text class="c" transform="translate(247.82 145.56) rotate(76.57) scale(1.12 1)">O</text><text class="c" transform="translate(250.16 162.72) rotate(81.65) scale(1.12 1)">R</text><text class="c" transform="matrix(0.08, 1.12, -1, 0.07, 250.95, 180.04)">N</text><text class="c" transform="translate(250.45 199.49) rotate(90.53) scale(1.12 1)">A</text><text class="c" transform="matrix(-0.1, 1.12, -1, -0.09, 248.55, 216.96)">N</text><text class="c" transform="translate(245.13 236.22) rotate(98.98) scale(1.12 1)">S</text><path class="a" d="M152.86,128.89c2.19-11.16,4.45-22.33,6.7-33.49l-2.61.35c5.58,9,9.48,18,10.76,28.5.19,1.64,2.67,1.75,2.64,0-.15-10.82-5.43-20.93-10.93-29.95a1.45,1.45,0,0,0-2.61.34,139.1,139.1,0,0,0-5.58,34c0,.93,1.45,1.16,1.63.23Z"/><path class="a" d="M177.33,125.45c2.32-3.94,2.37-7.26,2.28-11.65-.11-5.61,2.14-10.38,2.57-15.93L180.26,99c6.67,3,8.54,11,9.79,17.51a32.39,32.39,0,0,1,.3,10.35c-.38,2.68-.94,4.51-.18,7.21a.85.85,0,0,0,1.66-.22c0-3.55,1-6.9.94-10.46a41.74,41.74,0,0,0-1.11-9.66,42.14,42.14,0,0,0-2.29-7.73c-1.76-3.87-4.85-5.93-7.56-9-.8-.9-2.1-.11-2.19.9-.4,4.92-2.59,9.16-2.56,14.11,0,4.56.32,8.45-1,12.94a.69.69,0,0,0,1.26.53Z"/><path class="a" d="M177.15,134.42c2.54,3.45,4.15,8,5.79,11.9,2.31,5.54,4.4,11.18,6.44,16.82,4.36,12,7.85,24.9,15.54,35.28l1.85-1.85c-6.83-3.73-13.39-8.14-18.67-13.92-4.74-5.2-7.86-11.27-11-17.49-.7-1.38-3.15-.4-2.55,1.08,6.12,14.95,16.8,25.13,30.88,32.66,1.08.58,2.71-.69,1.84-1.84-8.2-10.83-11.22-24.91-15.82-37.52-2-5.38-4-10.73-6.3-16-1.61-3.69-3.22-7.67-6.13-10.56-.92-.9-2.66.32-1.85,1.42Z"/><path class="a" d="M147.22,188.62a27.88,27.88,0,0,0,.37,14.25c1.75,6,5.43,10.59,6.17,17a274.3,274.3,0,0,0,4.74,28.89c.46,2,3.4,1.14,3.07-.85-1.51-9.19-3.34-18.31-4.81-27.52a35.57,35.57,0,0,0-4.16-12.14c-3.24-6.1-4.16-12.59-3.84-19.42a.79.79,0,0,0-1.54-.21Z"/><path class="a" d="M163.27,230.23c-.8,6.4-3.78,12.18-4.45,18.68-.54,5.39-.8,12.12,1.68,17.12,5,10,19.3,9.48,26.46,2.48,3.27-3.2,3.32-9.25,3-13.58-.39-5.9-.74-11.75-1-17.65-.37-9.12-1.73-17.93,0-27,1.48-7.85,3.48-15.3,3-23.39-.06-1.1-1.77-1.47-2-.27-1.35,6.43-1.61,13-3,19.43a64.67,64.67,0,0,0-1.81,17.74c.6,10.69,1.72,21.41,2,32.12a21.62,21.62,0,0,1-1.07,7.86c-.91,2.51-2.78,3.72-5.05,4.92-7.36,3.88-16.17,1.25-18.49-7a40.62,40.62,0,0,1-.77-15.38c.62-5.6,3.05-10.38,2.75-16a.65.65,0,0,0-1.29,0Z"/><path class="a" d="M196.37,197c.19,4,2.28,7.31,4.12,10.72,1.6,3,2.83,6.4,5.59,8.52l1.43-2.44a79.34,79.34,0,0,1-12.16-10.07c-1.44-1.37-3.35.65-2.14,2.14a46,46,0,0,0,12.87,10.37c1.6.92,2.89-1.41,1.43-2.44-2.52-1.76-3.63-5.51-5.13-8.08-1.74-3-2.72-6.12-4.22-9.21a1,1,0,0,0-1.79.49Z"/><path class="a" d="M151.72,141.11c-5.64,12.41-10,25.09-18.56,35.9a137.61,137.61,0,0,1-20.74,21.46c-1.45,1.17.4,3,1.81,2.36,10.5-4.45,19.65-11.33,27.71-19.34s16.21-17,21.87-26.69a1.16,1.16,0,0,0-1.81-1.4c-7.57,7.74-13.54,17-21.11,24.81-8,8.28-17.12,15.37-27.81,19.88l1.46,2.5A134.93,134.93,0,0,0,136,178.28c8.36-10.78,13.32-23.58,17.19-36.55.25-.86-1.1-1.47-1.48-.62Z"/><path class="a" d="M157.08,186.35a5.28,5.28,0,0,0,.59-3,6.73,6.73,0,0,0-1.06-2.72c-.85-1.33-2.07-2.14-2.84-.35a8.12,8.12,0,0,0,.22,6.14c.77,1.83,2.73,2.3,3.3,0a.57.57,0,0,0-1-.44c-.89,1.56-1.36-2.32-1.38-2.87s-.07-2.17.53-2.67l-.76.2c.57.2,1.13,1.49,1.34,2.05a8.12,8.12,0,0,1,.43,3.49A.34.34,0,0,0,157.08,186.35Z"/><path class="a" d="M103.9,228.76c-2.34,8.82,2.76,20,6.12,28.07,3.56,8.56,8.51,16.45,16.47,21.56a1.58,1.58,0,0,0,1.9-2.47c-2.7-2.59-5.68-4.85-8.11-7.73-3.13-3.7-5.26-8.24-7.16-12.66a115.38,115.38,0,0,1-4.4-12.21c-1.41-4.58-3.38-9.45-2.91-14.3.11-1.11-1.63-1.3-1.91-.26Z"/><path class="a" d="M114.83,242.89c.61,6.74,1.18,13.21,3.51,19.62,2,5.62,4.72,13.36,9.29,17.34a1.11,1.11,0,0,0,1.84-1.07c-1-6.18-5.86-12.13-8-18s-2.56-12.25-5-18.06c-.32-.76-1.7-.8-1.61.22Z"/><path class="a" d="M143.44,128.22c-16.77,10-22.06,33.5-22.08,51.62,0,1.66,2.73,2.15,3,.41,2.18-14.06,9-24.37,17.89-35.05.67-.8-.2-2.23-1.2-1.55-11.36,7.67-17.47,22.77-19.63,35.79l3,.4a89,89,0,0,1,5.18-29.09c3.14-8.35,8.59-15,14.86-21.21a.84.84,0,0,0-1-1.32Z"/><path class="a" d="M119.31,201.12c-6,13-6.92,35,6.2,44.15l.89-2.12c-10.66-3.55-16-14.88-17.28-25.4-1.4-11.85,2.86-21.89,9.06-31.67,1-1.53-1.18-3.05-2.44-1.88-9.21,8.48-10.81,23.63-8.75,35.27,2,11.16,7.66,21.83,18.79,25.92,1.33.49,1.86-1.4.9-2.12-12.67-9.41-6.63-28.23-4.63-41,.24-1.52-2-2.84-2.74-1.16Z"/><ellipse class="d" cx="73.83" cy="274.57" rx="8.43" ry="9.85" transform="translate(-92.37 43.88) rotate(-20.72)"/><ellipse class="d" cx="240.07" cy="274.57" rx="9.85" ry="8.43" transform="translate(-101.67 401.97) rotate(-69.28)"/><path class="a" d="M182.44,108c-.63,5.24-1,12.8,1.87,17.51a.36.36,0,0,0,.65-.27c-1.59-5.5-1.8-11.53-2-17.24a.28.28,0,0,0-.56,0Z"/><path class="a" d="M158.81,114.26a23,23,0,0,0,.32,7.44c.46,2.07.9,4.59,2.47,6.1a.57.57,0,0,0,1-.39c0-2-1.08-3.84-1.54-5.74a60.35,60.35,0,0,1-1.37-7.41.42.42,0,0,0-.84,0Z"/><path class="a" d="M176.87,182.92a33.88,33.88,0,0,1-.66,5.76c-.36,1.71-1.06,3.27-1.5,4.94a.63.63,0,0,0,1.15.49c1.87-3.19,2.28-7.57,2-11.19a.49.49,0,0,0-1,0Z"/><path class="a" d="M171.55,189.69c-1.15-3.1-1.55-6.42-2.65-9.53a.34.34,0,0,0-.66.09c-.33,3.38,1.62,6.63,2.95,9.6.09.2.44.06.36-.16Z"/><path class="a" d="M166.6,248.2c1.64,3.08,2.53,15-3.81,12.32-1-.42-1.41,1.19-.44,1.6,7.32,3.08,10.55-11.4,5-14.64a.53.53,0,0,0-.72.72Z"/><path class="a" d="M182.34,248.49a11.84,11.84,0,0,0-1.21,5.92c0,2.55,0,5.79,2,7.64a.79.79,0,0,0,1.31-.76c-.24-1.31-.83-2.5-1.05-3.82a19.66,19.66,0,0,1-.16-3.76c0-1.64.3-3.26.26-4.9a.64.64,0,0,0-1.18-.32Z"/><path class="a" d="M144.7,207.35c-1,9.55-2.33,19.28-5,28.54-2.7,9.41-8.05,17-12,25.74a.86.86,0,0,0,1.48.86c5.25-8.11,10.15-16.65,12.82-26,2.74-9.54,3.48-19.3,4-29.16,0-.83-1.18-.79-1.27,0Z"/><path class="a" d="M191.18,151.07c1.91,12.17,15.22,19.18,24.44,25.64l.54-2a60.9,60.9,0,0,1-17.64-2.7,1.18,1.18,0,0,0-.91,2.14c5.58,3.11,12.36,2.9,18.55,2.72a1.09,1.09,0,0,0,.55-2c-9.57-6.52-20.27-12.71-24.63-24a.47.47,0,0,0-.9.25Z"/></svg>